<svg width="216" height="248" viewBox="0 0 216 248" fill="none" xmlns="http://www.w3.org/2000/svg">
<path fill-rule="evenodd" clip-rule="evenodd" d="M93.414 6.25116C26.008 45.0242 3.589 58.5222 1.844 61.3842C0.0690041 64.2942 -0.0259962 67.5552 0.00400384 124.453C0.0300038 173.141 0.292004 184.916 1.397 186.91C2.31 188.559 19.156 198.883 52.611 218.295C93.358 241.938 103.287 247.303 106.965 247.664C111.335 248.093 112.918 247.26 161.857 218.779C205.449 193.41 212.5 188.983 214.107 185.969C215.859 182.684 215.965 179.033 215.965 122.274V62.0652L213.715 59.5992C211.932 57.6462 127.427 8.36116 114.265 1.59716C108.625 -1.30084 105.221 -0.540838 93.414 6.25116ZM128.794 47.9332C146.732 53.0022 162.594 64.3792 173.187 79.7762C174.851 82.1942 175.802 84.5102 175.325 84.9812C173.671 86.6122 151.707 99.0332 150.988 98.7452C150.589 98.5842 148.283 96.0152 145.864 93.0362C127.655 70.6122 93.967 68.9132 73.494 89.3872C54.199 108.682 54.077 139.25 73.219 158.392C88.887 174.06 111.187 177.466 131.328 167.267C136.072 164.865 146.06 155.837 149.244 151.075L150.833 148.696L163.341 155.999C177.641 164.349 177.218 162.974 168.773 173.655C159.419 185.486 145.212 194.831 129.465 199.513C121.802 201.791 118.608 202.189 107.965 202.189C97.322 202.189 94.128 201.791 86.465 199.513C59.852 191.601 39.325 170.922 31.808 144.453C28.605 133.174 28.584 114.792 31.761 103.654C40.46 73.1572 64.261 51.6932 95.796 45.9072C103.225 44.5442 120.57 45.6092 128.794 47.9332Z" fill="black"/>
</svg>
