<svg width="45" height="45" viewBox="0 0 45 45" fill="none" xmlns="http://www.w3.org/2000/svg">
<path fill-rule="evenodd" clip-rule="evenodd" d="M21.21 0.0349033C20.9665 0.0487415 20.2964 0.116806 19.7208 0.185997C10.3152 1.31759 2.53431 8.39011 0.518928 17.6397C-0.100756 20.4836 -0.167249 23.5706 0.329191 26.4494C1.06512 30.7168 3.18443 34.8833 6.23713 38.0643C10.8176 42.8372 17.3035 45.3787 23.8198 44.9542C29.3646 44.5928 34.2401 42.4468 38.1979 38.6251C40.7586 36.1526 42.8429 32.8163 43.8969 29.503C45.2256 25.3264 45.3565 20.95 44.2759 16.8351C42.8341 11.3446 39.5462 6.78368 34.7581 3.63227C30.8674 1.07148 25.9464 -0.235183 21.21 0.0349033ZM35.6825 12.7005C35.705 12.8174 34.3349 14.035 28.8572 18.766C28.3448 19.2085 26.7579 20.5843 25.3307 21.8233C23.9035 23.0623 22.6866 24.0869 22.6266 24.1002C22.5665 24.1134 21.9968 23.6772 21.3606 23.1308C20.7244 22.5843 18.628 20.7845 16.7021 19.1313C14.7761 17.4781 12.3581 15.4021 11.3287 14.518C10.2994 13.6339 9.4571 12.8685 9.4571 12.8172C9.4571 12.5275 9.3403 12.5298 22.6541 12.5507C34.5329 12.5692 35.6596 12.5822 35.6825 12.7005ZM13.0352 18.5917C15.4554 20.6641 17.4225 22.4019 17.4066 22.4535C17.3907 22.5051 16.5646 23.2473 15.5708 24.1026C10.8351 28.1785 8.55366 30.1122 8.45408 30.1347C8.39411 30.1482 8.32327 30.1239 8.29654 30.0807C8.26982 30.0375 8.24792 26.5893 8.24792 22.4182C8.24792 14.6543 8.24994 14.6019 8.53917 14.7686C8.59182 14.799 10.615 16.5193 13.0352 18.5917ZM36.7607 15.0793C36.775 15.1534 36.7686 18.5295 36.7464 22.5817C36.7096 29.3287 36.6951 29.9492 36.5746 29.9492C36.3683 29.9492 27.8006 22.5726 27.828 22.4185C27.8639 22.2174 36.3526 14.9563 36.5594 14.9499C36.6622 14.9467 36.7454 15.0001 36.7607 15.0793ZM21.0414 25.1219C21.8393 25.8078 22.5429 26.369 22.605 26.369C22.6671 26.369 23.3476 25.8269 24.1173 25.1642C24.887 24.5017 25.5628 23.9586 25.6191 23.9574C25.6752 23.9563 26.4179 24.5452 27.2693 25.266C28.1207 25.9869 29.9945 27.5691 31.4335 28.7821C35.0091 31.7961 35.4584 32.1784 35.4584 32.2055C35.4584 32.2184 35.4365 32.2863 35.4096 32.3562C35.3653 32.4715 34.1594 32.4835 22.5727 32.4835C10.0205 32.4835 9.78321 32.4806 9.70158 32.3282C9.59886 32.1364 9.4943 32.2419 11.3273 30.6884C12.136 30.0029 14.2649 28.1906 16.0581 26.6611C17.8512 25.1315 19.3795 23.8789 19.4544 23.8775C19.5293 23.876 20.2434 24.4361 21.0414 25.1219Z" fill="black"/>
</svg>
