<svg width="256" height="151" viewBox="0 0 256 151" fill="none" xmlns="http://www.w3.org/2000/svg">
<path d="M49.0634 2.01367C38.1634 4.91367 30.4634 9.51367 21.2634 18.5137C10.7634 28.8137 5.16343 39.9137 1.86343 56.5137C-0.936572 70.5137 -0.536572 89.9137 2.76343 102.514C10.6634 132.414 33.4634 150.014 64.3634 150.014C94.0634 150.014 116.363 133.314 123.563 105.614C125.563 98.0137 125.063 97.0137 119.163 97.0137C116.863 97.0137 115.363 97.8137 113.463 100.114C112.063 101.814 110.863 103.814 110.863 104.614C110.863 108.114 104.563 119.414 99.9634 124.314C85.4634 139.614 55.2634 142.814 36.9634 131.114C22.7634 122.014 12.8634 102.714 12.8634 84.3137V78.0137H69.9634H127.163L126.563 67.2137C125.563 48.0137 121.463 35.2137 112.463 23.3137C97.9634 4.21367 72.8634 -4.18633 49.0634 2.01367ZM75.0634 13.1137C88.5634 15.9137 100.663 25.7137 107.363 39.3137C110.763 46.2137 113.763 57.5137 113.863 63.2137V66.0137H63.2634H12.6634L13.3634 60.7137C17.8634 27.8137 44.9634 6.81367 75.0634 13.1137Z" fill="#0B0B0B"/>
<path d="M137.163 3.71361C135.863 3.9136 134.863 4.6136 134.863 5.1136C134.863 5.71361 145.763 20.4136 159.163 37.8136C172.563 55.2136 183.863 70.1136 184.263 70.8136C184.763 71.6136 175.263 85.0136 158.163 108.014C143.463 127.814 131.363 144.514 131.363 145.214C131.363 146.014 133.163 146.614 136.363 146.814C140.363 147.014 142.163 146.614 144.863 144.814C146.963 143.414 157.363 130.214 170.563 112.514C182.763 96.0136 193.063 82.4136 193.563 82.3136C193.963 82.2136 204.363 95.9136 216.663 112.914C233.763 136.714 239.663 144.114 242.263 145.414C246.663 147.514 254.763 147.514 255.463 145.514C255.863 144.614 246.263 131.114 230.463 110.114C216.363 91.4136 204.363 75.0136 203.763 73.6136C202.363 70.5136 202.063 70.9136 217.763 50.6136C235.563 27.5136 250.863 7.1136 251.463 5.6136C251.863 4.71361 250.763 4.1136 248.063 3.71361C243.663 2.9136 238.363 4.21361 235.763 6.6136C234.663 7.6136 224.863 20.4136 213.763 35.1136L193.663 62.0136L183.463 48.2136C177.863 40.7136 168.863 28.5136 163.463 21.3136C158.163 14.0136 152.463 7.1136 150.863 6.01361C147.963 3.9136 141.163 2.81361 137.163 3.71361Z" fill="#0B0B0B"/>
</svg>
