<svg width="285" height="289" viewBox="0 0 285 289" fill="none" xmlns="http://www.w3.org/2000/svg">
<path fill-rule="evenodd" clip-rule="evenodd" d="M135.728 0.0673864C114.943 1.34555 97.0831 6.14929 79.3651 15.2282C73.2897 18.3411 70.1305 20.2213 64.4671 24.093C48.4792 35.0238 35.0004 48.718 24.7089 64.4872C8.59007 89.1844 0.00640866 117.547 5.0159e-06 146.129C-0.00389285 163.928 2.26383 178.922 7.36391 194.818C21.1337 237.737 53.3153 271.878 94.3989 287.154C96.969 288.109 97.8468 288.303 99.5939 288.303C100.75 288.303 102.173 288.155 102.757 287.974C104.294 287.495 105.774 286.102 106.527 284.423L107.184 282.957L107.187 268.26L107.19 253.563L106.505 253.742C104.539 254.254 97.0244 255.096 92.9906 255.256C83.3 255.642 74.9552 253.651 69.034 249.54C66.261 247.615 63.2048 244.402 61.6999 241.831C61.1214 240.843 59.9938 238.443 59.1944 236.499C55.2175 226.826 49.1034 218.23 43.9474 215.063C41.3325 213.457 38.2729 210.487 37.9786 209.27C37.4363 207.026 39.0469 205.922 43.16 205.716C47.8358 205.482 51.8124 206.618 55.8011 209.327C58.735 211.32 63.545 216.485 65.8372 220.104C70.8697 228.049 74.5178 231.684 80.092 234.308C83.7176 236.014 86.783 236.651 91.4593 236.669C96.4567 236.689 99.0343 236.228 104.024 234.423C105.94 233.73 107.554 233.115 107.609 233.058C107.664 233.001 107.971 231.625 108.289 230.001C109.507 223.801 111.878 218.658 115.323 214.746L116.684 213.2L115.765 213.04C115.26 212.953 112.791 212.556 110.279 212.159C75.7061 206.698 57.5807 188.938 53.06 156.094C52.0956 149.087 51.7696 138.635 52.3475 133.265C53.5726 121.887 57.9226 111.144 64.7631 102.604C65.9333 101.143 66.5021 100.201 66.3921 99.9065C66.2991 99.6577 65.9141 98.3503 65.5365 97.0014C63.1872 88.6076 63.1981 78.6949 65.5663 69.1109C66.9509 63.509 67.8402 61.1991 68.6986 60.9755C69.9409 60.6518 75.8005 61.1194 78.2344 61.7364C85.6426 63.6144 94.0096 67.6035 103.485 73.7745L107.253 76.2291L111.328 75.2061C132.583 69.87 156.039 70.0336 176.319 75.6589L178.488 76.2606L180.495 74.8714C186.264 70.8792 194.211 66.4621 199.625 64.2381C206.768 61.3037 215.883 59.7843 217.648 61.2335C218.173 61.6647 220.116 68.1402 220.972 72.3157C221.687 75.8014 221.738 76.5117 221.742 83.1265C221.747 90.799 221.44 93.1894 219.817 98.1376L219.111 100.289L219.899 101.172C221.239 102.673 223.428 105.698 225.032 108.268C231.688 118.929 234.438 131.165 233.604 146.41C232.587 164.998 228.096 178.909 219.641 189.654C214.513 196.171 206.459 202.204 198.044 205.832C190.938 208.896 181.519 211.407 172.758 212.574C168.549 213.134 168.761 212.953 170.271 214.695C173.612 218.55 175.741 222.942 177.026 228.629C178.302 234.279 178.308 234.422 178.317 259.55L178.326 283.535L178.944 284.735C180.288 287.343 183.215 288.829 186.297 288.467C189.321 288.112 200.005 283.592 208.111 279.24C226.133 269.562 242.306 255.549 255.185 238.454C257.994 234.725 263.764 225.816 266.04 221.693C279.474 197.36 286.049 169.835 284.864 142.893C284.687 138.869 284.354 133.821 284.125 131.675C279.735 90.592 259.467 53.931 227.386 29.0413C206.833 13.0955 182.453 3.32681 156.47 0.62541C152.37 0.199451 139.302 -0.15224 135.728 0.0673864Z" fill="black"/>
</svg>
