<svg width="428" height="444" viewBox="0 0 428 444" fill="none" xmlns="http://www.w3.org/2000/svg">
<path d="M192.6 0.987793C151.8 4.93158 110 22.99 77.4003 50.7005C-10.3997 125.321 -25.6997 259.93 42.8003 355.308C91.5003 423.286 175.2 456.082 256.3 439.269C295.4 431.07 332 411.247 361.2 382.292C379.8 364.026 393.1 345.137 405 320.332C442.5 242.183 432.2 148.465 378.5 80.4866C334 24.1317 263.6 -5.96576 192.6 0.987793ZM222.7 25.6884C235 32.2268 246.8 51.0118 256.7 79.8639C260.1 89.8272 267.4 118.679 269.1 128.643L269.7 132.586H213.6H157.5L158.1 128.643C159.8 118.679 167.1 89.8272 170.5 79.8639C183 43.4355 198.1 23.6127 213.4 23.6127C216.8 23.6127 220.1 24.3392 222.7 25.6884ZM165.4 35.7555C153.7 55.6821 143.6 85.0531 137.1 118.575C135.6 125.944 134.3 132.171 134.2 132.379C134 132.483 113.3 132.483 88.2003 132.379L42.5003 132.067L48.9003 120.962C58.1003 104.98 65.4003 95.4315 79.1003 81.2131C97.1003 62.5319 116.8 48.6248 139.5 38.7653C149.2 34.5101 165.3 29.0095 168.3 28.9057C169 28.8019 167.7 31.9155 165.4 35.7555ZM272.4 32.8496C301.7 42.8129 326.8 58.8994 348.6 81.6282C360.9 94.3937 369.6 105.914 378.4 121.17L384.7 132.067L339 132.379C313.9 132.483 293.2 132.483 293 132.379C292.9 132.171 291.6 125.944 290.1 118.575C283.6 85.0531 273.5 55.6821 261.8 35.7555C258.9 30.9814 258.1 28.8019 259.1 28.8019C259.9 28.8019 265.9 30.5663 272.4 32.8496ZM131.2 158.221C129.4 167.769 128.2 193.404 128.2 221.841C128.2 250.278 129.4 275.913 131.2 285.357L131.8 288.263H82.3003H32.9003L30.8003 280.687C24.5003 258.373 22.6003 244.673 22.6003 221.841C22.6003 199.008 24.5003 185.309 30.8003 162.891L32.9003 155.419H82.3003H131.8L131.2 158.221ZM274.7 170.156C275.6 179.704 276.1 198.178 276.1 221.841C276.1 245.504 275.6 263.977 274.7 273.422L273.3 288.263H213.6H153.9L152.5 273.422C151.6 263.977 151.1 245.504 151.1 221.841C151.1 198.178 151.6 179.704 152.5 170.156L153.9 155.419H213.6H273.3L274.7 170.156ZM396.4 162.891C402.7 185.309 404.6 199.008 404.6 221.737C404.6 244.051 402.6 258.684 396.4 280.687L394.3 288.263H344.9H295.4L296 285.357C300 264.911 299.9 179.289 296 158.221L295.4 155.419H344.9H394.3L396.4 162.891ZM135.2 314.936C141.2 351.468 152.6 386.235 165.5 407.926L169.7 415.087L166.4 414.361C153.1 411.559 128.5 400.661 113.9 391.217C85.2003 372.743 58.6003 343.476 44.2003 314.417L42.5003 311.095H88.5003H134.5L135.2 314.936ZM269.1 314.936C267.4 325.003 260.1 353.855 256.7 363.818C246.8 392.67 235 411.455 222.7 417.993C204.8 427.438 185.5 407.511 170.5 363.818C167.1 353.855 159.8 325.003 158.1 314.936L157.5 311.095H213.6H269.7L269.1 314.936ZM383 314.417C368.6 343.476 342 372.743 313.3 391.217C298.7 400.661 274.1 411.559 260.8 414.361L257.5 415.087L261.7 407.926C274.6 386.235 286 351.468 292 314.936L292.7 311.095H338.7H384.7L383 314.417Z" fill="black"/>
</svg>
