<svg width="194" height="256" viewBox="0 0 194 256" fill="none" xmlns="http://www.w3.org/2000/svg">
<path d="M113 3.10245C114.4 7.30244 113.6 14.8024 111 20.1024C107.7 26.8024 101.2 33.6024 83.9996 48.4024C62.4996 66.8024 57.7996 73.4024 57.7996 84.7024C57.8996 95.4024 63.0996 105.002 75.5996 117.602C83.5996 125.702 94.3996 134.702 95.1996 133.902C95.3996 133.702 93.5996 130.102 91.1996 126.002C86.1996 117.402 78.3996 100.102 77.2996 95.2024C76.0996 89.5024 81.0996 81.1024 93.8996 67.4024C112 47.9024 117.6 39.6024 119.8 28.4024C121.2 21.1024 120.1 13.6024 116.3 5.50244C113.5 -0.397552 111.2 -2.09755 113 3.10245Z" fill="black"/>
<path d="M139.199 47.0025C122.399 50.8025 109.999 57.8025 102.699 67.4025C98.1995 73.3025 96.2995 79.5025 96.3995 87.5025C96.3995 94.0025 97.6995 97.2025 104.799 108.202C112.299 119.602 112.299 125.102 105.299 134.302C102.299 138.302 101.999 139.002 103.599 139.002C106.699 139.002 115.299 134.202 119.199 130.202C124.899 124.602 126.199 121.402 126.199 114.002C126.199 108.202 125.599 106.402 120.999 97.1025C114.799 84.6025 114.399 80.9025 118.799 74.6025C122.799 68.7025 135.799 57.8025 151.799 46.8025L154.299 45.1025H150.799C148.899 45.2025 143.599 46.0025 139.199 47.0025Z" fill="black"/>
<path d="M50.1995 129.102C32.0995 130.702 20.9995 134.602 18.6995 140.202C16.1995 146.202 21.4995 150.402 35.8995 153.802C46.7995 156.302 91.1995 156.202 109.299 153.702C129.099 150.902 130.299 150.502 138.399 144.402C145.899 138.802 147.699 136.202 143.599 137.402C133.899 140.002 114.199 141.302 84.2995 141.402C53.2995 141.502 46.7995 141.102 46.7995 139.002C46.7995 137.302 52.7995 134.102 60.2995 131.802C64.1995 130.602 67.6995 129.202 68.2995 128.802C69.3995 127.902 62.7995 128.002 50.1995 129.102Z" fill="black"/>
<path d="M159.4 129.102C157.2 129.602 153.9 131.002 151.9 132.302L148.3 134.502L153.8 135.002C167.4 136.202 172.3 145.602 166.2 158.802C164.3 162.902 160.8 167.202 153.7 174.202C148.2 179.602 144.3 184.002 144.9 184.002C147.6 184.002 158.7 180.602 163.5 178.302C171 174.802 179.1 167.102 181.7 160.902C184.3 155.002 184.8 145.502 182.9 139.802C181.4 135.302 176.1 130.502 171.1 129.102C166.7 127.802 164.8 127.902 159.4 129.102Z" fill="black"/>
<path d="M46.1994 159.402C36.5994 163.902 34.2994 170.402 40.6994 174.702C53.3994 183.202 88.8995 185.702 116.299 179.902C122.999 178.502 137.799 173.802 137.799 173.102C137.799 172.802 134.399 170.402 130.299 167.802L122.799 163.102L115.299 165.002C103.299 168.102 83.6994 169.502 71.9994 168.202C62.3994 167.102 55.5994 165.102 54.2994 163.002C53.8995 162.402 54.3995 160.802 55.1994 159.502C56.7994 157.102 56.7994 157.002 54.0994 157.002C52.4994 157.002 48.9994 158.102 46.1994 159.402Z" fill="black"/>
<path d="M58.7995 183.902C46.7995 186.402 41.6995 196.302 49.6995 201.702C55.5995 205.702 62.3995 207.202 77.7995 207.702C98.2995 208.502 113.5 206.202 127.6 200.402C131 198.902 133.8 197.402 133.8 197.002C133.8 196.602 130.1 193.902 125.7 191.102L117.5 185.902L112.9 187.402C103.6 190.402 95.9995 191.402 82.7995 191.402C66.3995 191.502 62.2995 190.302 63.1995 185.802C63.4995 184.302 63.3995 183.102 62.9995 183.102C62.5995 183.202 60.6995 183.502 58.7995 183.902Z" fill="black"/>
<path d="M17.1995 198.402C5.69947 201.002 -0.900533 207.002 0.0994669 213.702C1.79947 224.002 19.5995 232.102 49.7995 236.202C64.0995 238.102 106.199 237.802 121.799 235.702C157.999 230.702 177.999 220.302 175.299 207.902C174.699 205.302 168.499 199.002 166.599 199.002C166.099 199.002 165.799 200.902 165.799 203.202C165.799 206.702 165.199 207.902 161.999 210.902C151.699 220.502 121.399 225.802 81.8995 224.702C46.1995 223.802 22.5995 217.902 23.9995 210.302C24.4995 207.202 32.3995 204.002 39.7995 204.002H46.2995L41.3995 200.902C35.4995 197.202 26.5995 196.302 17.1995 198.402Z" fill="black"/>
<path d="M189.599 223.902C179.499 232.802 159.399 241.002 137.799 245.102C128.999 246.702 121.099 247.402 103.799 247.702C79.5995 248.302 63.1995 247.002 43.5995 243.002C38.0995 241.802 33.0995 241.102 32.4995 241.302C30.5995 241.902 48.5995 248.002 59.7995 250.602C79.3995 255.102 92.1995 256.302 115.799 255.702C143.699 255.002 159.499 251.802 176.599 243.302C186.399 238.402 194.699 228.102 193.599 222.302C193.399 220.902 192.599 221.202 189.599 223.902Z" fill="black"/>
</svg>
