<svg width="192" height="192" viewBox="0 0 192 192" fill="none" xmlns="http://www.w3.org/2000/svg">
<path fill-rule="evenodd" clip-rule="evenodd" d="M0 96V192H96H192V96V0H96H0V96ZM159.086 89.714C163.77 91.786 171 98.353 171 100.536C171 101.212 168.04 103.694 164.422 106.051L157.844 110.337L155.672 107.763C149.086 99.957 138 101.903 138 110.865C138 115.93 140.296 117.911 152.005 122.947C163.582 127.925 170.681 133.119 174 139.04C176.087 142.763 176.5 144.823 176.5 151.5C176.5 158.381 176.124 160.139 173.813 164.07C163.932 180.878 132.689 181.306 118.584 164.827C116.613 162.524 115 160.068 115 159.368C115 158.669 118.037 156.307 121.75 154.119L128.5 150.142L132 154.067C137.766 160.534 146.069 162.669 153.452 159.585C158.915 157.302 160.642 151.79 157.363 147.107C156.436 145.785 150.463 142.282 143.613 139.044C129.343 132.298 125.532 129.338 122.367 122.541C117.658 112.428 120.469 98.363 128.315 92.776C136.666 86.83 149.646 85.538 159.086 89.714ZM104.5 123V157.5L101.837 163.181C100.064 166.963 97.802 169.855 95.069 171.835C84.472 179.512 66.456 178.247 56.661 169.14C54.167 166.822 51 162.04 51 160.594C51 159.902 64.994 151.638 65.357 152.116C65.517 152.327 66.615 153.903 67.798 155.618C70.517 159.561 74.908 161.428 79.455 160.574C85.986 159.349 86 159.269 86 122.444C86 104.233 86.316 89.017 86.703 88.631C87.089 88.244 91.252 88.057 95.953 88.214L104.5 88.5V123Z" fill="black"/>
</svg>
