<svg width="45" height="45" viewBox="0 0 45 45" fill="none" xmlns="http://www.w3.org/2000/svg">
<path fill-rule="evenodd" clip-rule="evenodd" d="M21.1157 0.0593236C16.499 0.324321 12.0564 2.04967 8.32894 5.02506C7.3928 5.77236 5.76151 7.40191 5.00451 8.34599C1.48847 12.7308 -0.277374 18.1889 0.0354493 23.7051C0.310086 28.5489 1.95638 32.8379 5.01983 36.691C5.69833 37.5443 7.4947 39.3306 8.39558 40.0478C14.0138 44.5201 21.1379 46.0477 28.1553 44.2849C33.415 42.9636 38.1759 39.5653 41.2671 34.9257C45.539 28.5138 46.1931 20.1933 42.9776 13.1687C40.8575 8.53731 37.2269 4.75767 32.6871 2.45589C29.8277 1.0062 26.9745 0.242051 23.7139 0.0527953C22.483 -0.0186834 22.4744 -0.0186168 21.1157 0.0593236ZM14.6589 11.1002C15.2049 11.3556 15.7345 11.8739 15.997 12.4096C16.1792 12.7813 16.1928 12.8628 16.1928 13.5753C16.1928 14.2744 16.177 14.3735 16.0118 14.7078C15.6369 15.4668 15.0041 15.9898 14.1961 16.2085C12.6955 16.6145 11.1678 15.5912 10.8869 13.9917C10.658 12.6881 11.5391 11.2949 12.8226 10.9309C13.3378 10.7848 14.1434 10.8591 14.6589 11.1002ZM29.6548 18.4672C31.4011 18.9579 32.7371 20.2939 33.2497 22.0621L33.4201 22.65V28.105V33.5601H31.1876H28.955V29.2422C28.955 25.4848 28.9412 24.8772 28.8487 24.5624C28.4931 23.3521 27.6645 22.599 26.4882 22.417C25.2656 22.2278 23.864 22.9225 23.2759 24.0092C22.8928 24.7171 22.8905 24.7483 22.8905 29.3439V33.5601H20.6579H18.4254V25.9992V18.4383H20.6579H22.8905V19.4798V20.5214L23.0347 20.3292C23.6723 19.4797 24.6308 18.8169 25.6562 18.5166C26.3237 18.3211 26.3795 18.3166 27.8887 18.3367C28.9235 18.3504 29.352 18.3821 29.6548 18.4672ZM15.8263 25.9992V33.5601H13.5604H11.2946V25.9992V18.4383H13.5604H15.8263V25.9992Z" fill="black"/>
</svg>
