<svg width="239" height="347" viewBox="0 0 239 347" fill="none" xmlns="http://www.w3.org/2000/svg">
<path fill-rule="evenodd" clip-rule="evenodd" d="M98.807 1.51587C42.256 11.9919 0.250002 63.1275 0.0010022 121.795C-0.0289978 128.964 0.616003 136.472 1.736 141.976C9.955 182.389 45.346 247.605 96.667 316.909C111.524 336.973 118.747 346.373 119.307 346.373C120.409 346.373 149.134 307.717 162.416 288.361C208.703 220.907 234.001 168.982 238.267 132.678C239.409 122.95 238.395 107.262 235.902 96.1215C224.978 47.292 186.741 9.95665 138.926 1.4318C128.035 -0.510002 109.536 -0.471601 98.807 1.51587ZM132.847 72.001C143.521 74.8291 151.188 79.4538 159.327 87.9755C168.006 97.0618 171.556 103.366 174.329 114.618C179.431 135.323 174.219 155.437 159.807 170.655C122.95 209.576 59.575 180.422 62.615 125.946C64.051 100.216 81.106 78.6899 105.307 72.0643C112.589 70.0696 125.449 70.0405 132.847 72.001Z" fill="black"/>
</svg>
