<svg width="198" height="439" viewBox="0 0 198 439" fill="none" xmlns="http://www.w3.org/2000/svg">
<path d="M96.5655 0.0310669C96.3655 0.431061 95.7655 2.53107 95.4655 4.73108C94.2655 11.5311 90.3655 16.5311 76.7655 29.3311C66.8655 38.7311 61.4655 44.8311 54.3655 54.7311C17.6655 106.031 2.56546 148.131 0.165459 205.731C-2.43454 269.531 25.6655 329.631 80.3655 377.231L90.4655 386.031L92.0655 392.931C94.7655 404.131 95.9655 414.331 96.7655 432.531C96.8655 433.631 98.4655 435.031 101.165 436.131C110.265 440.131 109.365 442.131 109.465 416.431C109.465 394.231 109.565 393.631 112.065 388.131C113.965 383.831 116.265 381.231 121.965 376.531C131.365 368.831 146.765 353.031 154.565 343.031C187.865 300.831 204.265 235.931 195.365 181.231C190.865 154.131 178.965 120.431 164.665 94.8311C153.665 75.1311 142.065 59.8311 121.365 37.4311C111.465 26.7311 109.665 24.1311 103.665 12.3311C99.9655 5.13107 96.7655 -0.468933 96.5655 0.0310669Z" fill="#050404"/>
</svg>
