<svg width="215" height="242" viewBox="0 0 215 242" fill="none" xmlns="http://www.w3.org/2000/svg">
<path d="M86.5283 9.10004C77.7283 14.1 68.9283 19.2 67.0283 20.3C65.1283 21.4 60.6283 24 57.0283 26C53.4283 28 47.0283 31.8 42.7283 34.3C38.4283 36.9 34.6283 39 34.3283 39C34.0283 39 32.6283 39.8 31.2283 40.8C29.7283 41.9001 25.4283 44.4001 21.5283 46.5C9.92826 52.8 5.42826 56.1001 2.62826 60.4001L0.0282558 64.4V98C-0.0717442 171.2 0.0282557 177.1 1.42826 179.9C3.92826 184.6 7.52826 187.3 22.1283 195.7C39.7283 205.7 46.0283 207.9 54.6283 207.4C62.3283 206.9 66.5283 205.2 71.1283 200.7C77.9283 194.1 77.9283 193.4 78.2283 130.7L78.5283 75H71.5283C67.3283 75 63.9283 75.5 63.2283 76.2C62.3283 77.1001 62.0283 90.1001 62.0283 128.7C62.0283 185.9 62.0283 186.2 55.6283 189.2C49.9283 192 45.3283 190.3 24.5283 178.2L16.5283 173.5V121.1V68.7L24.0283 64.2C28.1283 61.8 34.4283 58.2 38.0283 56.2C41.6283 54.3 45.7283 51.9001 47.2283 50.8C48.6283 49.8 50.1283 49 50.4283 49C50.7283 49 55.0283 46.5 60.1283 43.5C65.1283 40.5 69.4283 38 69.6283 38C69.9283 38 73.3283 36 77.3283 33.6C81.2283 31.2 86.3283 28.3 88.5283 27.1C90.7283 25.9 94.1283 24 96.0283 22.8C97.9283 21.6 101.528 19.6 103.928 18.4C108.328 16.1 108.428 16.1 111.428 17.9C115.528 20.4 144.828 37.4001 149.728 40.1001C157.528 44.5 179.628 57.4001 183.028 59.5C184.928 60.7 188.828 63 191.528 64.5C194.328 66.1001 196.828 67.8 197.228 68.4C197.628 69 198.028 92.7 198.028 121.1C198.028 179.8 199.128 173.2 188.328 179.4C184.828 181.4 179.428 184.5 176.328 186.3C173.128 188.2 164.428 193.2 157.028 197.5C149.628 201.8 142.228 206.1 140.528 207C106.928 226.5 108.328 225.9 105.828 224.6C101.928 222.5 96.8283 219.5 89.9283 215.2L83.3283 211.2L78.9283 213.2C76.5283 214.3 72.5283 216.1 70.1283 217.1C66.6283 218.7 66.0283 219.3 66.9283 220.4C68.0283 221.7 76.1283 226.8 85.5283 232C87.7283 233.2 92.1283 235.8 95.3283 237.8C99.8283 240.6 102.528 241.5 107.028 241.8C113.828 242.3 111.528 243.4 145.528 223.5C157.628 216.5 169.528 209.6 172.028 208.2C174.428 206.8 180.428 203.3 185.328 200.3C190.128 197.4 194.328 195 194.628 195C194.928 195 198.428 192.9 202.528 190.3C214.828 182.4 214.028 187.3 214.028 121.1C214.028 61.8 214.028 61.5 209.428 56.4001C208.328 55.3 202.128 51.3 195.528 47.5C188.928 43.8 172.128 34 158.228 25.8C144.328 17.7 132.828 11 132.628 11C132.428 11 128.028 8.50005 122.928 5.50005C114.628 0.600037 113.028 4.57764e-05 108.128 4.57764e-05C102.928 4.57764e-05 101.428 0.700043 86.5283 9.10004Z" fill="#090909"/>
<path d="M116.028 74.6001C99.4281 79.1001 91.7281 87.8001 91.6281 102C91.5281 119.5 100.328 125.5 132.028 129.5C158.328 132.9 163.328 135.4 161.628 144.5C160.728 149.1 154.728 153.6 148.228 154.7C140.528 155.9 124.728 155.3 118.928 153.6C111.628 151.5 106.028 145.5 106.028 139.8C106.028 135.9 104.128 135 96.4281 135C88.1281 135 87.4281 135.7 88.5281 143.2C91.2281 161.4 106.728 171 133.528 171.2C147.028 171.2 155.228 169.9 163.128 166.4C174.328 161.4 180.828 150.6 179.828 138.7C179.028 129.2 175.428 123.7 167.228 119.6C161.428 116.7 157.328 115.8 134.828 112.1C114.728 108.8 110.128 107.1 109.928 103.1C109.628 96.4001 111.128 93.9001 117.028 91.2001C122.328 88.9001 141.928 88.9001 148.228 91.3001C153.328 93.3001 157.028 97.4001 158.928 103.2L160.228 107H167.428C171.328 107 175.128 106.5 175.728 105.9C177.028 104.6 175.528 95.8001 172.928 90.8001C168.728 82.6001 159.328 76.2001 148.528 74.3001C140.128 72.8001 122.128 72.9001 116.028 74.6001Z" fill="#090909"/>
</svg>
