<svg width="253" height="256" viewBox="0 0 253 256" fill="none" xmlns="http://www.w3.org/2000/svg">
<path d="M101.163 1.13826C81.0633 4.43825 72.3633 8.33826 68.6633 15.6383C65.9633 20.8383 64.4633 33.2383 64.8633 46.6383L65.1633 57.1383L95.4633 57.4382L125.663 57.6383V61.1383V64.5383L78.9633 64.8383L32.1633 65.1383L25.6633 68.2383C14.0633 73.8383 7.86332 81.9383 3.96332 96.5383C-1.23668 116.038 -1.33668 136.538 3.76332 156.638C7.76332 172.538 13.7633 181.538 23.3633 186.238C28.5633 188.838 30.1633 189.038 43.7633 189.438L58.4633 189.838L58.8633 170.938L59.1633 152.038L62.4633 145.438C66.4633 137.138 74.3633 129.638 82.4633 126.438C87.9633 124.238 89.4633 124.138 126.163 123.638L164.263 123.138L170.963 119.838C175.963 117.338 178.663 115.238 181.263 111.838C187.563 103.238 187.763 101.038 187.463 60.9382C187.163 25.7383 187.163 25.0383 184.863 20.8383C179.663 11.1383 170.863 4.93825 158.063 2.03825C148.563 -0.161743 112.163 -0.761749 101.163 1.13826ZM96.0633 20.0383C100.463 21.8383 102.663 25.2383 102.663 30.1383C102.663 37.4382 96.1633 42.3383 88.9633 40.4382C84.4633 39.2383 81.6633 35.3383 81.6633 30.2383C81.6633 25.3383 83.7633 21.9382 88.0633 20.0383C91.9633 18.3383 92.0633 18.3383 96.0633 20.0383Z" fill="black"/>
<path d="M194.463 82.3383C194.163 99.8383 194.163 100.238 191.063 106.738C187.263 114.638 181.963 120.738 175.863 124.338C166.263 130.038 166.063 130.038 125.163 130.638L87.1633 131.138L82.0633 133.838C75.4633 137.338 69.2633 144.338 66.9633 150.938C65.3633 155.538 65.1633 160.038 65.1633 191.638V227.138L68.0633 232.338C73.0633 241.438 84.6633 248.438 102.663 253.338C107.663 254.738 112.963 255.138 126.163 255.138C140.863 255.138 144.363 254.838 152.163 252.738C170.063 248.038 180.563 241.138 185.263 231.138C187.463 226.638 187.663 224.738 187.663 211.338V196.638H157.163H126.663V193.138V189.638H173.163C202.363 189.638 221.463 189.238 224.563 188.538C234.463 186.438 240.863 179.438 246.663 164.438C251.963 150.738 253.063 144.538 252.963 128.638C252.763 103.638 246.263 80.6383 236.663 71.5383C230.763 65.9383 225.663 64.6383 209.063 64.6383H194.863L194.463 82.3383ZM165.663 214.138C168.863 215.838 171.663 220.238 171.663 223.638C171.663 226.538 169.063 231.238 166.463 233.038C165.263 233.938 162.563 234.638 160.563 234.638C152.963 234.638 147.763 226.338 151.163 219.338C152.763 215.838 157.363 212.738 160.963 212.638C161.963 212.638 164.063 213.338 165.663 214.138Z" fill="black"/>
</svg>
