<svg width="215" height="167" viewBox="0 0 215 167" fill="none" xmlns="http://www.w3.org/2000/svg">
<path d="M83.8002 1.67117C34.7002 9.27118 0.200221 38.2712 0.000221306 72.0712C-0.0997787 104.971 33.7002 134.471 80.5002 142.271L87.3002 143.371V154.771V166.071L106.6 165.871L125.8 165.571L126.1 154.271L126.4 143.071H129.1C130.6 143.071 135.8 142.171 140.7 141.071C145.7 139.971 149.8 139.071 149.9 139.071C150.1 139.071 153.4 145.171 157.3 152.571L164.4 166.071H185.9C197.7 166.071 207.3 165.871 207.3 165.571C207.3 165.371 201.9 156.071 195.3 144.971C188.7 133.871 183.3 124.571 183.3 124.171C183.3 123.871 184.8 122.571 186.6 121.371C192.2 117.571 203 105.771 206.8 99.5712C223.6 71.4712 212.8 39.3712 179.9 18.9712C154.5 3.37117 116.9 -3.42882 83.8002 1.67117ZM157.8 33.4712C178 38.7712 190.2 47.0712 196.6 59.9712C199.6 66.1712 199.8 67.1712 199.8 77.5712C199.8 87.3712 199.5 89.1712 197.1 94.2712C194 100.971 186.6 109.171 180.6 112.771C176.3 115.271 176.3 115.271 171.7 113.471L167.1 111.671L171.8 110.371C178.2 108.471 183.1 105.171 188.2 99.4712C193.8 93.1712 195.7 86.4712 195.1 75.1712C194.5 61.9712 189.7 54.2712 178.4 48.6712C170.2 44.4712 165.2 44.0712 125.3 44.0712H87.3002V82.1712V120.171L85.1002 119.571C83.8002 119.171 78.2002 116.671 72.5002 113.971C60.0002 107.971 50.8002 99.6712 46.6002 90.4712C42.7002 82.1712 42.7002 72.9712 46.6002 64.6712C52.1002 52.8712 66.6002 41.9712 85.5002 35.6712C99.2002 31.0712 107 30.0712 128.3 30.4712C145.4 30.7712 149 31.1712 157.8 33.4712ZM152.2 73.5712C155.4 75.1712 156.3 76.8712 156.3 81.1712C156.3 88.7712 151.8 91.0712 136.8 91.0712H126.3V81.5712V72.0712H137.8C146 72.0712 150.2 72.4712 152.2 73.5712ZM138.7 121.171C140.1 122.271 141.3 123.671 141.3 124.171C141.3 124.671 137.9 125.071 133.8 125.071H126.3V122.071C126.3 119.171 126.4 119.071 131.2 119.071C134.6 119.071 136.8 119.671 138.7 121.171Z" fill="black"/>
</svg>
