<svg width="255" height="230" viewBox="0 0 255 230" fill="none" xmlns="http://www.w3.org/2000/svg">
<path d="M67.8 1.2628C50.3 6.7628 43.7 30.0628 50.3 62.8628L52.1 71.2628L43.7 74.0628C25.1 80.3628 10.2 89.8628 3.8 99.4628C0.1 105.063 0 105.363 0 114.863C0 124.563 0 124.663 3.9 130.263C10.6 140.063 27.2 150.463 44.8 155.963L52.1 158.163L50.3 166.763C47.4 179.863 47.3 199.263 50.2 208.363C53 217.263 57.1 222.763 63.3 226.163C72.9 231.363 83.3 230.663 97.1 223.863C105.2 219.863 116.7 211.863 123.7 205.063L127.4 201.563L134.2 207.563C151.8 223.063 169.7 231.163 182.4 229.463C188.5 228.663 196.1 224.163 199.6 219.463C205 212.163 207 203.263 206.8 188.363C206.7 180.163 205.9 172.263 204.8 166.963L203 158.463L212 155.363C230.6 148.763 244.4 139.963 251.1 130.263C255 124.663 255 124.563 255 114.863C255 105.363 254.9 105.063 251.3 99.6628C244.8 89.8628 229.9 80.2628 211.4 74.1628L203 71.2628L204.7 62.3628C208.7 41.3628 208 26.5628 202.4 15.0628C191.6 -7.13719 164.3 -4.33719 134.3 22.0628L127.5 28.0628L120.8 22.1628C107.4 10.4628 96.3 3.9628 85.3 1.36281C77.7 -0.437195 73.4 -0.437195 67.8 1.2628ZM91.6 17.0628C99.3 20.8628 105.8 25.4628 113.9 32.5628L118.6 36.7628L111.3 45.5628C107.3 50.3628 102.6 56.2628 101 58.5628C98.9 61.5628 97.1 62.9628 95 63.2628C74.8 66.5628 65 67.7628 64.4 67.1628C62.5 65.2628 60.3 47.0628 60.7 36.8628C61.2 24.3628 63.4 18.1628 68.7 14.8628C73.8 11.6628 82.3 12.4628 91.6 17.0628ZM186.3 14.8628C191.6 18.0628 193.8 24.3628 194.3 36.8628C194.7 47.1628 192.5 65.2628 190.6 67.1628C190.1 67.6628 187.1 67.4628 183.9 66.8628C180.6 66.2628 173.4 65.1628 167.7 64.3628C162 63.6628 157.2 62.8628 157.1 62.6628C155.5 60.2628 148.7 51.6628 143.3 45.1628L136.4 36.8628L140.4 33.3628C159.7 15.9628 176.8 9.06281 186.3 14.8628ZM134.5 54.0628L140.6 61.3628L134.1 61.6628C130.5 61.8628 124.5 61.8628 120.9 61.6628L114.4 61.3628L120.5 54.0628C123.8 50.1628 127 46.8628 127.5 46.8628C128 46.8628 131.2 50.1628 134.5 54.0628ZM143.1 74.8628H150.3L155.5 82.9628C158.3 87.3628 163.6 96.3628 167.2 102.963L173.7 114.763L167.1 126.863C163.5 133.563 158.2 142.563 155.4 146.963L150.3 154.863H127.5H104.7L99.7 146.963C96.9 142.563 91.6 133.563 87.9 126.963L81.3 114.863L87.8 102.963C91.4 96.3628 96.6 87.3628 99.5 82.9628L104.6 74.9628L114.3 74.5628C119.6 74.3628 126.7 74.3628 129.9 74.5628C133.1 74.6628 139.1 74.8628 143.1 74.8628ZM84.7 83.0628C82.6 86.5628 79.6 91.7628 78 94.6628C76.5 97.4628 75 99.6628 74.8 99.4628C74.6 99.2628 72.9 94.8628 71.1 89.7628L67.7 80.3628L76.4 78.7628C89.5 76.2628 89 75.9628 84.7 83.0628ZM179.7 78.9628L187.3 80.2628L184.3 88.7628C180.1 100.863 180.3 100.663 177 94.6628C175.4 91.7628 172.4 86.4628 170.2 82.9628L166.4 76.5628L169.2 77.1628C170.7 77.4628 175.4 78.2628 179.7 78.9628ZM56.2 85.5628C56.5 86.5628 59.2 93.5628 62.2 101.163L67.6 114.863L62.1 128.663C59.2 136.163 56.5 143.163 56.1 144.163C55.4 146.263 53.4 145.863 42.5 141.663C0 125.063 1.2 103.263 45.5 86.7628C54.4 83.4628 55.4 83.3628 56.2 85.5628ZM209.4 86.7628C253.9 103.263 255.1 125.063 212.5 141.663C201.6 145.863 199.6 146.263 198.9 144.163C198.5 143.163 195.8 136.163 192.9 128.663L187.4 114.863L192.8 101.163C195.8 93.5628 198.5 86.5628 198.8 85.5628C199.6 83.3628 200 83.3628 209.4 86.7628ZM78 134.963C79.4 137.663 82.4 142.963 84.6 146.563C88.4 152.663 88.5 153.063 86.3 152.563C85 152.263 80.5 151.463 76.3 150.763C71.1 149.963 68.5 149.163 68.5 148.263C68.5 146.763 74.5 129.863 75.1 129.863C75.3 129.863 76.6 132.163 78 134.963ZM183.4 138.463C185.1 143.163 186.5 147.563 186.5 148.263C186.5 149.163 183.9 149.963 178.8 150.763C174.5 151.463 170 152.263 168.7 152.563C166.5 153.063 166.6 152.663 170.4 146.563C172.6 142.963 175.6 137.663 177 134.963C178.4 132.163 179.7 129.863 179.9 129.863C180.1 129.863 181.7 133.663 183.4 138.463ZM78 163.863C84.4 164.963 91.4 165.863 93.5 165.863C96.7 165.863 97.7 166.363 99.6 169.063C100.9 170.863 105.6 176.963 110.2 182.563L118.5 192.663L112.2 198.363C95.8 213.263 77.5 220.263 68.9 214.963C63.6 211.763 61.1 205.063 60.7 192.863C60.3 183.463 62.4 165.463 64.1 162.763C64.8 161.563 64.5 161.563 78 163.863ZM192.3 167.863C193.2 171.163 193.8 179.463 193.9 188.363C194 202.263 193.8 203.663 191.6 208.163C188.7 214.163 184.6 216.863 178.3 216.863C169.2 216.863 154.5 209.163 142.3 197.963L136.5 192.663L144.8 182.563C149.4 176.963 154.1 170.863 155.4 169.063C157.4 166.263 158.2 165.863 162.3 165.763C164.9 165.763 171.3 164.863 176.5 163.863C190.5 161.263 190.7 161.263 192.3 167.863ZM137.7 171.563C136 173.663 133.1 177.163 131.2 179.363C127.8 183.263 127.7 183.363 125.7 181.563C124.6 180.563 121.6 177.063 119 173.763L114.4 167.863H127.5H140.7L137.7 171.563Z" fill="black"/>
<path d="M122 91.7628C110.9 94.6628 104.1 103.363 104.1 114.863C104.1 128.663 113.7 138.263 127.5 138.263C141.3 138.263 150.9 128.663 150.9 114.863C150.9 105.363 146.5 97.9628 138.4 93.8628C134.2 91.6628 126.3 90.6628 122 91.7628Z" fill="black"/>
</svg>
