<svg width="256" height="156" viewBox="0 0 256 156" fill="none" xmlns="http://www.w3.org/2000/svg">
<path d="M112.5 1.31914C93.8999 4.71914 80.4999 14.2191 71.4999 30.3191C68.0999 36.4191 62.4999 51.6191 63.2999 52.5191C63.5999 52.7191 66.8999 49.8191 70.6999 46.0191C74.8999 41.8191 79.8999 38.0191 83.4999 36.2191C88.8999 33.6191 90.4999 33.3191 98.9999 33.3191C112.4 33.3191 116.4 35.5191 133.1 51.5191C152 69.5191 160.3 74.4191 178 77.5191C187.9 79.3191 203.2 78.8191 212.5 76.3191C226.1 72.8191 238.1 64.3191 245.6 53.1191C250.1 46.3191 256 32.5191 256 28.6191C256 26.0191 255.6 26.3191 249.2 32.7191C245.1 36.8191 240.1 40.6191 236.5 42.4191C231.1 45.0191 229.5 45.3191 221 45.3191C207.6 45.3191 203.6 43.1191 186.9 27.1191C173 13.9191 165.2 8.21914 156.1 4.71914C143.8 0.0191422 126.5 -1.28086 112.5 1.31914Z" fill="black"/>
<path d="M48.5 78.3191C26 82.5191 11.1 95.4191 2.5 118.219C1.1 121.819 0 125.919 0 127.319C0 129.519 0.8 129.019 6.8 122.919C10.9 118.819 15.9 115.019 19.5 113.219C24.9 110.619 26.5 110.319 35 110.319C48.4 110.319 52.4 112.519 69.1 128.519C88 146.519 96.3 151.419 114 154.519C123.9 156.319 139.2 155.819 148.5 153.319C168.6 148.119 183.1 133.719 190.5 111.419C191.9 107.119 192.9 103.419 192.7 103.119C192.4 102.919 189.1 105.819 185.3 109.619C181.1 113.819 176.1 117.619 172.5 119.419C167.1 122.019 165.5 122.319 157 122.319C143.6 122.319 139.6 120.119 122.9 104.119C109 90.9191 101.2 85.2191 92.1 81.7191C79.8 77.0191 62.5 75.7191 48.5 78.3191Z" fill="black"/>
</svg>
