<svg width="52" height="64" viewBox="0 0 52 64" fill="none" xmlns="http://www.w3.org/2000/svg">
<path d="M47.5107 2.5L47.625 4.87988L48.457 22.1602L48.583 24.7803H42.9561V48.46H37.3164V44.8721C37.3164 43.6615 37.2966 42.7003 37.1758 41.8818C37.0576 41.0812 36.8641 40.5888 36.6309 40.2588C36.265 39.7411 35.2317 38.8604 31.4316 38.8604H22.54V54.0244C22.5401 55.0635 22.6884 55.4841 22.7607 55.6221C22.8093 55.6389 22.9041 55.6661 23.0674 55.6895C23.3996 55.737 23.8215 55.748 24.4561 55.748H27.4043V61.3877H2.5V55.748H5.44824C6.09936 55.748 6.53571 55.7369 6.87988 55.6885C7.05718 55.6635 7.15774 55.634 7.20801 55.6162C7.28025 55.4789 7.4277 55.0604 7.42773 54.0244V9.92773C7.42771 8.83704 7.27082 8.40636 7.19727 8.27051C7.1485 8.25307 7.04959 8.22509 6.875 8.2002C6.53349 8.1515 6.09988 8.13965 5.44824 8.13965H2.5V2.5H47.5107ZM24.3281 8.13965C23.7224 8.13965 23.3262 8.15517 23.0244 8.20312C22.8912 8.22429 22.8118 8.24692 22.7695 8.26172C22.697 8.3986 22.5401 8.83366 22.54 9.92773V33.2197H31.4316C35.218 33.2197 36.2518 32.3295 36.623 31.7988C36.861 31.4587 37.0571 30.9553 37.1758 30.1465C37.297 29.3207 37.3164 28.3535 37.3164 27.1436V23.5557H42.8789L42.8232 22.4004C42.6129 18.0435 41.5519 14.4363 39.7109 11.9795C37.9538 9.63452 35.3482 8.13965 31.4316 8.13965H24.3281Z" fill="black" stroke="white" stroke-width="5"/>
</svg>
